<svg width="109" height="98" xmlns="http://www.w3.org/2000/svg" xmlns:xlink="http://www.w3.org/1999/xlink" overflow="hidden"><defs><clipPath id="clip0"><rect x="432" y="119" width="109" height="98"/></clipPath></defs><g clip-path="url(#clip0)" transform="translate(-432 -119)"><path d="M457.292 145.628C458.182 145.628 458.921 145.657 459.507 145.716 460.093 145.775 460.567 145.862 460.931 145.98 461.294 146.097 461.552 146.243 461.704 146.419 461.856 146.595 461.932 146.8 461.932 147.034L461.932 178.675C461.932 180.737 461.739 182.595 461.352 184.247 460.966 185.9 460.309 187.306 459.384 188.466 458.458 189.626 457.245 190.511 455.745 191.12 454.245 191.73 452.393 192.034 450.19 192.034 449.487 192.034 448.79 191.982 448.098 191.876 447.407 191.771 446.774 191.636 446.2 191.472 445.626 191.308 445.128 191.132 444.706 190.945 444.284 190.757 444.003 190.587 443.862 190.435 443.722 190.282 443.604 190.124 443.511 189.96 443.417 189.796 443.335 189.579 443.264 189.31 443.194 189.04 443.147 188.706 443.124 188.308 443.1 187.909 443.089 187.405 443.089 186.796 443.089 185.999 443.106 185.325 443.141 184.775 443.177 184.224 443.235 183.79 443.317 183.474 443.399 183.157 443.516 182.935 443.669 182.806 443.821 182.677 444.014 182.612 444.249 182.612 444.46 182.612 444.706 182.689 444.987 182.841 445.268 182.993 445.585 183.152 445.936 183.316 446.288 183.48 446.698 183.638 447.167 183.79 447.636 183.943 448.186 184.019 448.819 184.019 449.452 184.019 450.009 183.931 450.489 183.755 450.97 183.579 451.368 183.275 451.684 182.841 452.001 182.407 452.241 181.827 452.405 181.101 452.569 180.374 452.651 179.437 452.651 178.288L452.651 147.034C452.651 146.8 452.727 146.595 452.88 146.419 453.032 146.243 453.278 146.097 453.618 145.98 453.958 145.862 454.432 145.775 455.042 145.716 455.651 145.657 456.401 145.628 457.292 145.628Z" stroke="#843C0C" stroke-width="2" stroke-linejoin="round" stroke-miterlimit="10" fill="#4B2115" fill-rule="evenodd"/><text fill="#000000" fill-opacity="0" font-family="Arial,Arial_MSFontService,sans-serif" font-size="46.4062" x="443.089" y="186.234">J</text><path d="M475.254 145.839 481.301 145.839C482.379 145.839 483.305 145.927 484.078 146.103 484.852 146.279 485.52 146.571 486.082 146.982 486.645 147.392 487.113 147.931 487.488 148.599 487.863 149.267 488.192 150.093 488.473 151.077L498.317 178.183 498.457 178.183 508.653 151.148C508.957 150.163 509.291 149.331 509.654 148.652 510.018 147.972 510.44 147.421 510.92 146.999 511.401 146.577 511.969 146.279 512.625 146.103 513.281 145.927 514.043 145.839 514.91 145.839L521.133 145.839C521.766 145.839 522.311 145.921 522.768 146.085 523.225 146.249 523.6 146.489 523.893 146.806 524.186 147.122 524.408 147.509 524.561 147.966 524.713 148.423 524.789 148.945 524.789 149.53L524.789 190.066C524.789 190.3 524.725 190.511 524.596 190.698 524.467 190.886 524.233 191.038 523.893 191.155 523.553 191.273 523.102 191.366 522.539 191.437 521.977 191.507 521.262 191.542 520.395 191.542 519.551 191.542 518.848 191.507 518.285 191.437 517.723 191.366 517.278 191.273 516.949 191.155 516.621 191.038 516.387 190.886 516.246 190.698 516.106 190.511 516.035 190.3 516.035 190.066L516.035 153.046 515.965 153.046 502.781 190.03C502.688 190.335 502.535 190.587 502.324 190.786 502.113 190.986 501.826 191.144 501.463 191.261 501.1 191.378 500.637 191.454 500.074 191.489 499.512 191.525 498.832 191.542 498.035 191.542 497.238 191.542 496.559 191.513 495.996 191.454 495.434 191.396 494.971 191.302 494.608 191.173 494.244 191.044 493.957 190.886 493.746 190.698 493.535 190.511 493.395 190.288 493.324 190.03L480.598 153.046 480.528 153.046 480.528 190.066C480.528 190.3 480.463 190.511 480.334 190.698 480.205 190.886 479.965 191.038 479.613 191.155 479.262 191.273 478.811 191.366 478.26 191.437 477.709 191.507 477 191.542 476.133 191.542 475.289 191.542 474.586 191.507 474.024 191.437 473.461 191.366 473.01 191.273 472.67 191.155 472.33 191.038 472.096 190.886 471.967 190.698 471.838 190.511 471.774 190.3 471.774 190.066L471.774 149.53C471.774 148.335 472.09 147.421 472.723 146.788 473.356 146.155 474.199 145.839 475.254 145.839Z" stroke="#843C0C" stroke-width="2" stroke-linejoin="round" stroke-miterlimit="10" fill="#4B2115" fill-rule="evenodd"/><text fill="#000000" fill-opacity="0" font-family="Arial,Arial_MSFontService,sans-serif" font-size="45.7031" x="471.774" y="185.829">M</text></g></svg>